<?xml version="1.0" encoding="utf-8"?>
<!-- Generator: Adobe Illustrator 28.0.0, SVG Export Plug-In . SVG Version: 6.00 Build 0)  -->
<svg version="1.1" id="Layer_1" xmlns="http://www.w3.org/2000/svg" xmlns:xlink="http://www.w3.org/1999/xlink" x="0px" y="0px"
	 viewBox="0 0 864 864" style="enable-background:new 0 0 864 864;" xml:space="preserve">
<path d="M156.4,524.2c-5,4.4-11,7.6-17.5,9.2c-6.4,1.6-13.2,1.8-19.8,0.8c-13.1-2-25.7-8.2-35.2-17.2c-9.7-9.1-16.7-20.7-21.3-33.2
	c-4.6-12.5-6.9-25.9-6.9-39.2c0.2-13.3,2.4-26.5,6.9-38.9c4.7-12.3,11.2-23.8,20.2-33c8.9-9.2,19.6-16.1,31.7-19.9
	c12.1-3.8,25.2-5.1,38.4-4.7c26.7,1.4,53.6,6,79.3,14.4c25.8,8.4,50.8,19.5,75.3,32c49,25.1,95.5,55.7,145.2,83.1
	c24.8,13.7,50.2,26.9,77.4,37.4c27.1,10.7,55.2,18.6,84.2,23.6c28.9,4.7,58.9,6.5,89.3,1.8c15.2-2.5,30.5-6.4,45.2-13.3
	c14.6-6.9,28.5-16.6,39.8-29c11.2-12.5,19.4-27.5,24.3-42.8c1.2-3.8,2.1-7.7,3.2-11.6c1-3.9,1.4-7.8,2.2-11.6
	c0.8-3.9,0.9-7.7,1.3-11.6c0.1-1.9,0.4-3.8,0.4-5.8l0.1-6c0.1-4-0.3-8-0.6-11.9c-0.5-4-0.8-8-1.8-11.9c-1.4-7.9-4-15.8-7.4-23.5
	c-3.4-7.7-8.3-15-14.4-21.5c-6.1-6.5-14.1-11.5-22.3-14.8l-6.3-2.1c-2.1-0.6-4.3-0.8-6.4-1.2c-4.3-0.9-8.5-0.7-12.7-0.9
	c-4.1,0.2-8.2,0.6-12.2,1.2l-6,1.4c-2,0.5-4,1-5.8,1.8c-15.3,5.4-28.7,15.1-38.2,27.6c-2.2,3.3-4.6,6.3-6.3,9.9l-2.7,5.2l-2.1,5.5
	c-1.5,3.6-2.1,7.5-3,11.2c-0.4,1.9-0.4,3.9-0.6,5.8c-0.1,1.9-0.5,3.8-0.2,5.8c0.3,3.9,0.3,7.7,1.4,11.4c0.5,1.9,0.7,3.7,1.3,5.5
	l2.1,5.3l1.1,2.6l1.4,2.4l2.9,4.7c2.1,3,4.6,5.7,6.9,8.5l3-2.4c-7.5-11.5-10.4-24.9-8.7-37.4c1.8-12.5,8.3-23.9,16.9-32.6
	c8.6-8.8,19.8-14.7,31.2-17.2c1.4-0.4,2.9-0.6,4.3-0.7c1.5-0.1,2.9-0.3,4.3-0.5c2.9-0.1,5.9-0.1,8.7,0c2.7,0.5,5.6,0.5,8.1,1.4
	c1.3,0.4,2.6,0.6,3.8,1.1l3.5,1.6c8.9,4.6,15.2,12.9,19.1,23.4c1.8,5.3,3.3,10.9,3.8,16.8c0.5,2.9,0.4,5.9,0.6,8.9c-0.1,3,0,6-0.3,9
	l-0.4,4.5c-0.2,1.5-0.4,3.1-0.6,4.6c-0.5,3.1-0.7,6.2-1.5,9.2c-0.7,3-1.2,6-2.1,8.9c-1,2.8-1.7,5.7-2.8,8.5
	c-4.2,11-10.3,20.7-18.2,28.7c-15.5,16.1-38.4,25.2-63.2,29c-12.4,1.9-25.3,2.8-38.3,2.7c-13-0.1-26.2-1-39.4-2.7
	c-26.3-3.2-52.7-9.2-77.9-17.9c-25.4-8.7-50.2-20.3-74.8-32.6c-49.1-24.9-97.2-54.2-148.6-78.4c-25.7-12-52.3-22.7-79.9-30.7
	c-27.7-7.9-56.5-11.9-85.6-12.4c-14.7,0.2-29.7,2.2-44.1,7.5c-14.4,5.1-27.5,14.4-37.5,25.8c-10.1,11.4-17,25-21.6,39
	c-4.5,14.1-6.3,28.9-5.8,43.5c0.7,14.7,3.8,29.1,9.4,42.6c5.6,13.5,14,26,25.2,35.6c11.3,9.6,25.3,15.6,39.9,17.1
	c7.3,0.7,14.8,0.2,21.8-2c7-2.2,13.5-6,18.7-11.1L156.4,524.2z"/>
</svg>
