<svg xmlns="http://www.w3.org/2000/svg" xmlns:xlink="http://www.w3.org/1999/xlink" width="864" zoomAndPan="magnify" viewBox="0 0 648 647.999998" height="864" preserveAspectRatio="xMidYMid meet" version="1.0"><path fill="#000000" d="M 94.847656 435.921875 C 90.6875 439.582031 85.699219 442.242188 80.292969 443.574219 C 74.972656 444.90625 69.316406 445.070312 63.828125 444.238281 C 52.933594 442.574219 42.457031 437.421875 34.554688 429.9375 C 26.488281 422.367188 20.667969 412.722656 16.84375 402.328125 C 13.019531 391.933594 11.105469 380.789062 11.105469 369.726562 C 11.273438 358.667969 13.101562 347.691406 16.84375 337.378906 C 20.75 327.148438 26.15625 317.585938 33.640625 309.9375 C 41.042969 302.285156 49.941406 296.546875 60.003906 293.386719 C 70.066406 290.226562 80.960938 289.144531 91.9375 289.480469 C 114.140625 290.644531 136.511719 294.46875 157.882812 301.453125 C 179.335938 308.4375 200.128906 317.671875 220.5 328.066406 C 261.25 348.9375 299.917969 374.386719 341.25 397.171875 C 361.875 408.5625 382.996094 419.539062 405.613281 428.273438 C 428.152344 437.171875 451.519531 443.738281 475.636719 447.898438 C 499.667969 451.808594 524.617188 453.304688 549.898438 449.394531 C 562.539062 447.316406 575.261719 444.074219 587.484375 438.335938 C 599.625 432.597656 611.1875 424.53125 620.582031 414.21875 C 629.898438 403.824219 636.714844 391.351562 640.789062 378.625 C 641.789062 375.464844 642.535156 372.222656 643.453125 368.980469 C 644.285156 365.738281 644.617188 362.492188 645.28125 359.332031 C 645.945312 356.089844 646.03125 352.929688 646.363281 349.6875 C 646.445312 348.105469 646.695312 346.527344 646.695312 344.863281 L 646.777344 339.875 C 646.863281 336.546875 646.527344 333.222656 646.28125 329.976562 C 645.863281 326.652344 645.613281 323.324219 644.78125 320.082031 C 643.617188 313.511719 641.457031 306.941406 638.628906 300.539062 C 635.800781 294.136719 631.726562 288.066406 626.652344 282.660156 C 621.582031 277.253906 614.929688 273.097656 608.109375 270.351562 L 602.871094 268.605469 C 601.125 268.105469 599.292969 267.941406 597.546875 267.609375 C 593.972656 266.859375 590.480469 267.027344 586.988281 266.859375 C 583.578125 267.027344 580.167969 267.359375 576.839844 267.859375 L 571.851562 269.023438 C 570.1875 269.4375 568.523438 269.851562 567.027344 270.519531 C 554.304688 275.007812 543.160156 283.074219 535.261719 293.46875 C 533.429688 296.214844 531.4375 298.710938 530.023438 301.703125 L 527.777344 306.027344 L 526.03125 310.601562 C 524.78125 313.59375 524.285156 316.839844 523.535156 319.914062 C 523.203125 321.496094 523.203125 323.160156 523.035156 324.738281 C 522.953125 326.320312 522.621094 327.898438 522.871094 329.5625 C 523.121094 332.804688 523.121094 335.964844 524.035156 339.042969 C 524.449219 340.621094 524.617188 342.117188 525.117188 343.617188 L 526.863281 348.023438 L 527.777344 350.1875 L 528.941406 352.179688 L 531.351562 356.089844 C 533.097656 358.585938 535.179688 360.828125 537.089844 363.160156 L 539.585938 361.164062 C 533.347656 351.597656 530.9375 340.457031 532.351562 330.0625 C 533.847656 319.664062 539.253906 310.1875 546.40625 302.949219 C 553.554688 295.632812 562.871094 290.726562 572.351562 288.648438 C 573.515625 288.316406 574.761719 288.148438 575.925781 288.066406 C 577.171875 287.980469 578.335938 287.816406 579.503906 287.648438 C 581.914062 287.566406 584.410156 287.566406 586.738281 287.648438 C 588.980469 288.066406 591.394531 288.066406 593.472656 288.8125 C 594.554688 289.144531 595.636719 289.3125 596.632812 289.726562 L 599.542969 291.058594 C 606.945312 294.882812 612.183594 301.785156 615.425781 310.519531 C 616.925781 314.925781 618.171875 319.582031 618.585938 324.488281 C 619.003906 326.902344 618.917969 329.394531 619.085938 331.890625 C 619.003906 334.386719 619.085938 336.878906 618.835938 339.375 L 618.503906 343.117188 C 618.335938 344.363281 618.171875 345.695312 618.003906 346.941406 C 617.589844 349.519531 617.421875 352.097656 616.757812 354.59375 C 616.175781 357.085938 615.757812 359.582031 615.011719 361.996094 C 614.179688 364.324219 613.597656 366.734375 612.683594 369.0625 C 609.191406 378.210938 604.117188 386.277344 597.546875 392.929688 C 584.65625 406.320312 565.613281 413.886719 544.992188 417.046875 C 534.679688 418.625 523.953125 419.375 513.140625 419.292969 C 502.328125 419.207031 491.351562 418.460938 480.375 417.046875 C 458.503906 414.386719 436.550781 409.394531 415.59375 402.160156 C 394.472656 394.925781 373.847656 385.277344 353.390625 375.050781 C 312.558594 354.34375 272.558594 329.976562 229.816406 309.851562 C 208.441406 299.875 186.324219 290.976562 163.371094 284.324219 C 140.335938 277.753906 116.386719 274.425781 92.1875 274.011719 C 79.960938 274.175781 67.488281 275.839844 55.511719 280.25 C 43.539062 284.488281 32.644531 292.222656 24.328125 301.703125 C 15.929688 311.183594 10.191406 322.492188 6.367188 334.136719 C 2.625 345.859375 1.125 358.167969 1.542969 370.308594 C 2.125 382.535156 4.703125 394.507812 9.359375 405.734375 C 14.015625 416.960938 21 427.359375 30.316406 435.339844 C 39.710938 443.324219 51.355469 448.3125 63.496094 449.5625 C 69.566406 450.144531 75.804688 449.726562 81.625 447.898438 C 87.445312 446.070312 92.851562 442.910156 97.175781 438.667969 Z M 94.847656 435.921875 " fill-opacity="1" fill-rule="nonzero"/></svg>